<svg width="121" height="122" viewBox="0 0 121 122" fill="none" xmlns="http://www.w3.org/2000/svg">
<g opacity="0.1">
<path d="M45.666 147.277C61.9967 147.277 75.2354 134.039 75.2354 117.708C75.2354 101.377 61.9967 88.1387 45.666 88.1387C29.3353 88.1387 16.0967 101.377 16.0967 117.708C16.0967 134.039 29.3353 147.277 45.666 147.277Z" fill="#F59C00"/>
<path d="M116.805 147.277C133.135 147.277 146.374 134.039 146.374 117.708C146.374 101.377 133.135 88.1387 116.805 88.1387C100.474 88.1387 87.2354 101.377 87.2354 117.708C87.2354 134.039 100.474 147.277 116.805 147.277Z" fill="#F59C00"/>
<path d="M45.5693 74.1387C61.9 74.1387 75.1387 60.9 75.1387 44.5693C75.1387 28.2386 61.9 15 45.5693 15C29.2386 15 16 28.2386 16 44.5693C16 60.9 29.2386 74.1387 45.5693 74.1387Z" fill="#F59C00"/>
<path d="M116.708 74.1387C133.039 74.1387 146.277 60.9 146.277 44.5693C146.277 28.2386 133.039 15 116.708 15C100.377 15 87.1387 28.2386 87.1387 44.5693C87.1387 60.9 100.377 74.1387 116.708 74.1387Z" fill="#F59C00"/>
</g>
</svg>
