<svg width="59" height="60" viewBox="0 0 59 60" fill="none" xmlns="http://www.w3.org/2000/svg">
<g opacity="0.1">
<path d="M15.2132 64.6485C23.1579 64.6485 29.5983 58.208 29.5983 50.2634C29.5983 42.3187 23.1579 35.8783 15.2132 35.8783C7.26855 35.8783 0.828125 42.3187 0.828125 50.2634C0.828125 58.208 7.26855 64.6485 15.2132 64.6485Z" fill="#F59C00"/>
<path d="M49.8226 64.6485C57.7672 64.6485 64.2077 58.208 64.2077 50.2634C64.2077 42.3187 57.7672 35.8783 49.8226 35.8783C41.8779 35.8783 35.4375 42.3187 35.4375 50.2634C35.4375 58.208 41.8779 64.6485 49.8226 64.6485Z" fill="#F59C00"/>
<path d="M15.1663 29.0675C23.111 29.0675 29.5514 22.6271 29.5514 14.6824C29.5514 6.73778 23.111 0.297363 15.1663 0.297363C7.22167 0.297363 0.78125 6.73778 0.78125 14.6824C0.78125 22.6271 7.22167 29.0675 15.1663 29.0675Z" fill="#F59C00"/>
<path d="M49.7757 29.0675C57.7204 29.0675 64.1608 22.6271 64.1608 14.6824C64.1608 6.73778 57.7204 0.297363 49.7757 0.297363C41.831 0.297363 35.3906 6.73778 35.3906 14.6824C35.3906 22.6271 41.831 29.0675 49.7757 29.0675Z" fill="#F59C00"/>
</g>
</svg>
