<svg width="186" height="306" viewBox="0 0 186 306" fill="none" xmlns="http://www.w3.org/2000/svg">
<path d="M63.4191 205.915C63.4191 158.929 86.5523 142.098 105.766 128.102C119.519 118.288 131.044 109.895 131.044 93.1562C131.044 75.5729 117.912 64.5076 102.326 64.5076C86.5666 64.5076 71.8391 75.0933 71.8391 94.5202H0C0 32.7704 46.4353 0 102.564 0C160.97 0 205 36.063 205 92.4527C205 131.674 183.221 148.615 163.849 163.787C148.46 175.717 134.891 186.232 134.891 205.909V213.779H63.4191V205.915ZM61.7745 234.547H135.951V306H61.7756L61.7745 234.547Z" fill="white" fill-opacity="0.2"/>
</svg>
