<svg width="124" height="153" viewBox="0 0 124 153" fill="none" xmlns="http://www.w3.org/2000/svg">
<path d="M38.3608 95.8179C38.3608 67.5649 52.3536 57.4448 63.9756 49.0287C72.2943 43.1276 79.2655 38.0805 79.2655 28.0155C79.2655 17.4425 71.3221 10.7889 61.8946 10.7889C52.3622 10.7889 43.4539 17.1541 43.4539 28.8357H0C0 -8.29493 28.0877 -28 62.0385 -28C97.3673 -28 124 -6.31507 124 27.5924C124 51.1763 110.826 61.3634 99.1087 70.4862C89.7999 77.6597 81.5926 83.9826 81.5926 95.8146V100.547H38.3608V95.8179ZM37.3661 113.035H82.2338V156H37.3667L37.3661 113.035Z" fill="white" fill-opacity="0.2"/>
</svg>
