<svg width="142" height="48" viewBox="0 0 142 48" fill="none" xmlns="http://www.w3.org/2000/svg">
<path d="M0 24C0 10.7452 10.7452 0 24 0C37.2548 0 48 10.7452 48 24V48H24C10.7452 48 0 37.2548 0 24Z" fill="white"/>
<path fill-rule="evenodd" clip-rule="evenodd" d="M21.6466 29.7863C26.0272 29.7863 29.5784 26.1886 29.5784 21.7506C29.5784 17.3125 26.0272 13.7148 21.6466 13.7148C17.266 13.7148 13.7148 17.3125 13.7148 21.7506C13.7148 26.1886 17.266 29.7863 21.6466 29.7863ZM21.6466 24.9648C23.3989 24.9648 24.8193 23.5258 24.8193 21.7506C24.8193 19.9754 23.3989 18.5363 21.6466 18.5363C19.8944 18.5363 18.4739 19.9754 18.4739 21.7506C18.4739 23.5258 19.8944 24.9648 21.6466 24.9648Z" fill="#EC7D3F"/>
<path d="M40.2863 35.0095L27.992 23.3577L23.233 28.1791L26.0091 30.9916H29.1818V33.0006H31.9579V35.8131H35.5272V38.2238L40.2863 39.4291V35.0095Z" fill="#EC7D3F"/>
<path d="M131.441 32.2002H136.298C136.802 32.2002 137.312 32.229 137.83 32.2865C138.348 32.3297 138.816 32.452 139.233 32.6535C139.665 32.8549 140.01 33.1499 140.269 33.5384C140.543 33.9126 140.687 34.4234 140.701 35.0709C140.701 35.5745 140.586 36.0422 140.356 36.4739C140.126 36.9056 139.759 37.2581 139.255 37.5315C139.946 37.7186 140.449 38.0496 140.766 38.5244C141.097 38.9849 141.262 39.5389 141.262 40.1864C141.262 40.7908 141.14 41.316 140.895 41.7621C140.651 42.1937 140.327 42.5463 139.924 42.8197C139.521 43.0787 139.053 43.273 138.521 43.4025C137.989 43.5176 137.427 43.5751 136.837 43.5751H131.441V32.2002ZM133.924 34.2507V36.8624H135.413C135.744 36.8624 136.082 36.8624 136.427 36.8624C136.787 36.848 137.104 36.7977 137.377 36.7113C137.665 36.625 137.895 36.4883 138.068 36.3012C138.255 36.1142 138.348 35.8479 138.348 35.5026C138.348 35.2004 138.276 34.9702 138.133 34.8119C138.003 34.6392 137.838 34.5097 137.636 34.4234C137.435 34.337 137.204 34.2867 136.945 34.2723C136.701 34.2579 136.471 34.2507 136.255 34.2507H133.924ZM136.427 41.503C136.715 41.503 136.996 41.4887 137.269 41.4599C137.557 41.4311 137.809 41.3663 138.025 41.2656C138.255 41.1505 138.442 41.0066 138.586 40.8339C138.73 40.6469 138.802 40.4022 138.802 40.1001C138.802 39.5533 138.629 39.1863 138.284 38.9993C137.953 38.8122 137.543 38.7187 137.053 38.7187H133.924V41.503H136.427Z" fill="white"/>
<path d="M123.594 32.0059C124.501 32.0059 125.299 32.1498 125.99 32.4375C126.681 32.7253 127.263 33.1282 127.738 33.6463C128.227 34.1499 128.594 34.7615 128.839 35.4809C129.084 36.2004 129.206 36.999 129.206 37.8768C129.206 38.769 129.084 39.5748 128.839 40.2942C128.609 40.9993 128.256 41.6109 127.781 42.1289C127.307 42.6469 126.717 43.0427 126.011 43.3161C125.321 43.5895 124.515 43.7262 123.594 43.7262C122.688 43.7262 121.889 43.5895 121.198 43.3161C120.507 43.0283 119.925 42.6326 119.45 42.1289C118.989 41.6109 118.637 40.9921 118.392 40.2727C118.162 39.5532 118.047 38.7546 118.047 37.8768C118.047 36.999 118.162 36.2004 118.392 35.4809C118.637 34.7615 118.997 34.1499 119.471 33.6463C119.946 33.1282 120.529 32.7253 121.22 32.4375C121.91 32.1498 122.702 32.0059 123.594 32.0059ZM123.594 41.5893C124.155 41.5893 124.63 41.4958 125.019 41.3087C125.422 41.1073 125.745 40.8411 125.99 40.5101C126.249 40.1791 126.436 39.7906 126.551 39.3445C126.681 38.8985 126.745 38.4164 126.745 37.8984C126.745 37.3804 126.681 36.8983 126.551 36.4522C126.436 35.9918 126.249 35.5961 125.99 35.2651C125.745 34.9341 125.422 34.6751 125.019 34.4881C124.63 34.301 124.155 34.2075 123.594 34.2075C123.047 34.2075 122.572 34.301 122.169 34.4881C121.781 34.6751 121.457 34.9341 121.198 35.2651C120.954 35.5961 120.767 35.9918 120.637 36.4522C120.522 36.8983 120.464 37.3804 120.464 37.8984C120.464 38.4164 120.522 38.8985 120.637 39.3445C120.767 39.7906 120.954 40.1791 121.198 40.5101C121.457 40.8411 121.781 41.1073 122.169 41.3087C122.572 41.4958 123.047 41.5893 123.594 41.5893Z" fill="white"/>
<path d="M107.574 47.9999H105.113V32.2001H107.444L107.574 33.8189C107.991 33.229 108.531 32.7829 109.193 32.4807C109.869 32.1641 110.574 32.0059 111.308 32.0059C112.085 32.0059 112.783 32.1498 113.402 32.4375C114.02 32.7109 114.546 33.0995 114.977 33.6031C115.423 34.1067 115.754 34.7183 115.97 35.4378C116.2 36.1429 116.316 36.9487 116.316 37.8552C116.316 38.7042 116.208 39.4884 115.992 40.2079C115.776 40.9274 115.452 41.5533 115.02 42.0857C114.603 42.6038 114.078 43.0067 113.445 43.2945C112.826 43.5823 112.071 43.7262 111.178 43.7262C110.488 43.7262 109.826 43.6182 109.193 43.4024C108.574 43.1722 108.034 42.798 107.574 42.28V47.9999ZM110.79 41.5893C111.322 41.5893 111.783 41.4958 112.171 41.3087C112.56 41.1073 112.876 40.8411 113.121 40.5101C113.38 40.1791 113.567 39.7906 113.682 39.3445C113.812 38.8985 113.877 38.4164 113.877 37.8984C113.877 37.3804 113.812 36.8983 113.682 36.4522C113.567 35.9918 113.38 35.5961 113.121 35.2651C112.876 34.9341 112.553 34.6751 112.15 34.4881C111.761 34.301 111.294 34.2075 110.747 34.2075C110.258 34.2075 109.804 34.3082 109.387 34.5096C108.984 34.7111 108.646 34.9773 108.373 35.3083C108.099 35.6392 107.89 36.0349 107.747 36.4954C107.617 36.9415 107.552 37.4019 107.552 37.8768C107.552 38.3948 107.617 38.8841 107.747 39.3445C107.876 39.7906 108.07 40.1791 108.329 40.5101C108.603 40.8267 108.941 41.0857 109.344 41.2871C109.747 41.4886 110.229 41.5893 110.79 41.5893Z" fill="white"/>
<path d="M103.699 32.2002V34.337H99.8572V43.5751H97.4182V34.337H93.5762V32.2002H103.699Z" fill="white"/>
<path d="M84.4196 38.7186C84.4484 39.1359 84.5347 39.5244 84.6786 39.8841C84.8225 40.2439 85.0168 40.5605 85.2614 40.8339C85.506 41.0929 85.8082 41.3015 86.1679 41.4598C86.5421 41.6181 86.9737 41.6972 87.463 41.6972C87.981 41.6972 88.4559 41.6037 88.8876 41.4166C89.3336 41.2296 89.6574 40.9058 89.8589 40.4453H92.3842C92.2403 41.0209 92.0029 41.5174 91.6719 41.9347C91.3554 42.352 90.974 42.6973 90.528 42.9707C90.0963 43.2297 89.6142 43.424 89.0818 43.5535C88.5638 43.6686 88.0098 43.7262 87.4198 43.7262C86.5133 43.7262 85.7147 43.5895 85.024 43.3161C84.3477 43.0427 83.7793 42.6469 83.3188 42.1289C82.8583 41.6109 82.513 40.9993 82.2828 40.2942C82.0669 39.5748 81.959 38.769 81.959 37.8768C81.959 37.0134 82.0813 36.2292 82.3259 35.5241C82.5705 34.8046 82.9231 34.1859 83.3836 33.6679C83.8584 33.1498 84.4268 32.7469 85.0887 32.4591C85.7506 32.1569 86.5061 32.0059 87.3551 32.0059C88.2472 32.0059 89.0171 32.1569 89.6646 32.4591C90.3121 32.7469 90.8517 33.1426 91.2834 33.6463C91.7295 34.1499 92.0605 34.7399 92.2763 35.4162C92.4921 36.0925 92.6001 36.8264 92.6001 37.6178C92.6001 37.9919 92.5785 38.3588 92.5353 38.7186H84.4196ZM90.2042 36.8623C90.161 35.9702 89.8804 35.2939 89.3624 34.8334C88.8588 34.3729 88.1969 34.1427 87.3767 34.1427C86.9162 34.1427 86.5133 34.2147 86.1679 34.3586C85.8226 34.5024 85.5276 34.6967 85.283 34.9413C85.0527 35.186 84.8657 35.4737 84.7218 35.8047C84.5779 36.1357 84.4844 36.4882 84.4412 36.8623H90.2042Z" fill="white"/>
<path d="M64 43.5756V28.3154H67.1513L71.7056 36.129L76.2167 28.3154H79.2817V43.5756H76.7995V31.6826L72.202 39.604H71.0797L66.4822 31.6826V43.5756H64Z" fill="white"/>
<path d="M117.74 19.1445V7.76953H120.179V12.4102H121.928L124.841 7.76953H127.647L124.043 13.1872L127.928 19.1445H125.079L122.079 14.547H120.179V19.1445H117.74Z" fill="white"/>
<path d="M110.627 19.2955C109.72 19.2955 108.922 19.1588 108.231 18.8854C107.555 18.5976 106.986 18.2019 106.526 17.6983C106.08 17.1802 105.741 16.5687 105.511 15.8636C105.295 15.1441 105.188 14.3527 105.188 13.4893C105.188 12.6259 105.303 11.8345 105.533 11.115C105.777 10.3955 106.137 9.7768 106.612 9.25877C107.087 8.74075 107.663 8.33065 108.339 8.02847C109.015 7.72629 109.799 7.5752 110.692 7.5752C111.325 7.5752 111.907 7.64714 112.44 7.79104C112.987 7.92054 113.469 8.14358 113.886 8.46015C114.303 8.76233 114.663 9.15085 114.965 9.62571C115.267 10.0862 115.476 10.6474 115.591 11.3093H113.044C112.915 10.82 112.634 10.4459 112.202 10.1869C111.785 9.9135 111.267 9.7768 110.648 9.7768C110.102 9.7768 109.634 9.87753 109.245 10.079C108.857 10.2804 108.54 10.5538 108.296 10.8992C108.051 11.2445 107.871 11.6474 107.756 12.1079C107.655 12.554 107.605 13.0216 107.605 13.5109C107.605 14.0145 107.663 14.4894 107.778 14.9355C107.893 15.3815 108.073 15.77 108.317 16.101C108.576 16.4176 108.9 16.6766 109.289 16.878C109.677 17.0651 110.145 17.1586 110.692 17.1586C111.339 17.1586 111.871 17.0147 112.289 16.727C112.72 16.4392 112.994 16.0578 113.109 15.583H115.634C115.519 16.2305 115.303 16.7917 114.987 17.2666C114.685 17.7414 114.31 18.1299 113.864 18.4321C113.418 18.7343 112.922 18.9573 112.375 19.1012C111.828 19.2307 111.246 19.2955 110.627 19.2955Z" fill="white"/>
<path d="M94.7547 19.1445H92.4668V7.76953H94.9274V15.5831L100.712 7.76953H102.935V19.1445H100.475V11.482C100.46 11.5108 98.5536 14.065 94.7547 19.1445Z" fill="white"/>
<path d="M84.6194 7.5752C85.526 7.5752 86.3246 7.71909 87.0153 8.00688C87.706 8.29467 88.2888 8.69758 88.7636 9.21561C89.2529 9.71924 89.6198 10.3308 89.8644 11.0503C90.1091 11.7698 90.2314 12.5684 90.2314 13.4461C90.2314 14.3383 90.1091 15.1441 89.8644 15.8636C89.6342 16.5687 89.2817 17.1802 88.8068 17.6983C88.3319 18.2163 87.742 18.612 87.0369 18.8854C86.3462 19.1588 85.5404 19.2955 84.6194 19.2955C83.7129 19.2955 82.9143 19.1588 82.2236 18.8854C81.5329 18.5976 80.9501 18.2019 80.4752 17.6983C80.0148 17.1802 79.6622 16.5615 79.4176 15.842C79.1874 15.1225 79.0723 14.3239 79.0723 13.4461C79.0723 12.5684 79.1874 11.7698 79.4176 11.0503C79.6622 10.3308 80.022 9.71924 80.4968 9.21561C80.9717 8.69758 81.5545 8.29467 82.2452 8.00688C82.9359 7.71909 83.7273 7.5752 84.6194 7.5752ZM84.6194 17.1586C85.1806 17.1586 85.6555 17.0651 86.044 16.878C86.4469 16.6766 86.7707 16.4104 87.0153 16.0794C87.2743 15.7485 87.4614 15.3599 87.5765 14.9139C87.706 14.4678 87.7708 13.9857 87.7708 13.4677C87.7708 12.9497 87.706 12.4676 87.5765 12.0216C87.4614 11.5611 87.2743 11.1654 87.0153 10.8344C86.7707 10.5035 86.4469 10.2445 86.044 10.0574C85.6555 9.87033 85.1806 9.7768 84.6194 9.7768C84.0726 9.7768 83.5978 9.87033 83.1949 10.0574C82.8064 10.2445 82.4826 10.5035 82.2236 10.8344C81.979 11.1654 81.7919 11.5611 81.6624 12.0216C81.5473 12.4676 81.4897 12.9497 81.4897 13.4677C81.4897 13.9857 81.5473 14.4678 81.6624 14.9139C81.7919 15.3599 81.979 15.7485 82.2236 16.0794C82.4826 16.4104 82.8064 16.6766 83.1949 16.878C83.5978 17.0651 84.0726 17.1586 84.6194 17.1586Z" fill="white"/>
<path d="M76.3894 19.1449H73.8856V6.12954H66.5038V19.1449H64V3.88477H76.3894V19.1449Z" fill="white"/>
</svg>
