<svg width="20" height="20" viewBox="0 0 20 20" fill="none" xmlns="http://www.w3.org/2000/svg">
<path d="M16.5964 10.9179C16.2731 10.4804 16.3656 10.2857 16.5964 9.89464C16.6006 9.89018 19.2698 5.93839 19.5448 4.59821L19.5465 4.59732C19.6832 4.10893 19.5465 3.75 18.8857 3.75H16.6989C16.1422 3.75 15.8856 4.05804 15.748 4.40268C15.748 4.40268 14.6347 7.25804 13.0596 9.10893C12.5513 9.64375 12.3163 9.81518 12.0388 9.81518C11.9021 9.81518 11.6896 9.64375 11.6896 9.15536V4.59732C11.6896 4.01161 11.5337 3.75 11.0729 3.75H7.63443C7.28525 3.75 7.07775 4.02321 7.07775 4.27768C7.07775 4.83304 7.86527 4.96071 7.94694 6.52321V9.91339C7.94694 10.6562 7.8211 10.7929 7.54193 10.7929C6.79857 10.7929 4.99434 7.92589 3.92514 4.64464C3.7093 4.00804 3.49845 3.75089 2.9376 3.75089H0.750026C0.125838 3.75089 0 4.05893 0 4.40357C0 5.0125 0.743359 8.04018 3.45679 12.0402C5.26518 14.7705 7.81194 16.25 10.1287 16.25C11.5212 16.25 11.6912 15.9214 11.6912 15.3563C11.6912 12.7473 11.5654 12.5009 12.2629 12.5009C12.5863 12.5009 13.143 12.6723 14.443 13.9893C15.9289 15.5509 16.1731 16.25 17.0048 16.25H19.1915C19.8149 16.25 20.1307 15.9214 19.949 15.2732C19.5332 13.9098 16.7231 11.1054 16.5964 10.9179Z" fill="white"/>
</svg>
