<svg width="20" height="20" viewBox="0 0 20 20" fill="none" xmlns="http://www.w3.org/2000/svg">
<path d="M10.8575 1.66675C11.795 1.66925 12.2708 1.67425 12.6816 1.68591L12.8433 1.69175C13.03 1.69841 13.2141 1.70675 13.4366 1.71675C14.3233 1.75841 14.9283 1.89841 15.4591 2.10425C16.0091 2.31591 16.4725 2.60258 16.9358 3.06508C17.3597 3.48153 17.6876 3.98547 17.8966 4.54175C18.1025 5.07258 18.2425 5.67758 18.2841 6.56508C18.2941 6.78675 18.3025 6.97091 18.3091 7.15841L18.3141 7.32008C18.3266 7.73008 18.3316 8.20591 18.3333 9.14341L18.3341 9.76508V10.8567C18.3362 11.4646 18.3298 12.0724 18.315 12.6801L18.31 12.8417C18.3033 13.0292 18.295 13.2134 18.285 13.4351C18.2433 14.3226 18.1016 14.9267 17.8966 15.4584C17.6876 16.0147 17.3597 16.5186 16.9358 16.9351C16.5194 17.359 16.0154 17.6869 15.4591 17.8959C14.9283 18.1017 14.3233 18.2417 13.4366 18.2834L12.8433 18.3084L12.6816 18.3134C12.2708 18.3251 11.795 18.3309 10.8575 18.3326L10.2358 18.3334H9.14497C8.53685 18.3356 7.92874 18.3292 7.3208 18.3142L7.15913 18.3092C6.96131 18.3018 6.76353 18.2931 6.5658 18.2834C5.67913 18.2417 5.07413 18.1017 4.54247 17.8959C3.98649 17.6868 3.48284 17.3589 3.06663 16.9351C2.64242 16.5187 2.31422 16.0148 2.10497 15.4584C1.89913 14.9276 1.75913 14.3226 1.71747 13.4351L1.69247 12.8417L1.6883 12.6801C1.67294 12.0724 1.66599 11.4646 1.66747 10.8567V9.14341C1.66516 8.53558 1.67127 7.92775 1.6858 7.32008L1.69163 7.15841C1.6983 6.97091 1.70663 6.78675 1.71663 6.56508C1.7583 5.67758 1.8983 5.07341 2.10413 4.54175C2.31388 3.98525 2.64265 3.48128 3.06747 3.06508C3.48343 2.64137 3.98679 2.31348 4.54247 2.10425C5.07413 1.89841 5.6783 1.75841 6.5658 1.71675C6.78747 1.70675 6.97247 1.69841 7.15913 1.69175L7.3208 1.68675C7.92846 1.67194 8.5363 1.66555 9.14413 1.66758L10.8575 1.66675ZM10.0008 5.83341C8.89573 5.83341 7.83592 6.2724 7.05452 7.0538C6.27312 7.8352 5.83413 8.89501 5.83413 10.0001C5.83413 11.1051 6.27312 12.165 7.05452 12.9464C7.83592 13.7278 8.89573 14.1667 10.0008 14.1667C11.1059 14.1667 12.1657 13.7278 12.9471 12.9464C13.7285 12.165 14.1675 11.1051 14.1675 10.0001C14.1675 8.89501 13.7285 7.8352 12.9471 7.0538C12.1657 6.2724 11.1059 5.83341 10.0008 5.83341ZM10.0008 7.50008C10.3291 7.50003 10.6542 7.56464 10.9575 7.69022C11.2609 7.81581 11.5365 7.99991 11.7687 8.23202C12.0009 8.46413 12.1851 8.73969 12.3108 9.04299C12.4364 9.34628 12.5012 9.67136 12.5012 9.99966C12.5013 10.328 12.4367 10.6531 12.3111 10.9564C12.1855 11.2597 12.0014 11.5354 11.7693 11.7676C11.5372 11.9997 11.2616 12.1839 10.9583 12.3096C10.655 12.4353 10.3299 12.5 10.0016 12.5001C9.33859 12.5001 8.70271 12.2367 8.23387 11.7678C7.76502 11.299 7.50163 10.6631 7.50163 10.0001C7.50163 9.33704 7.76502 8.70115 8.23387 8.23231C8.70271 7.76347 9.33859 7.50008 10.0016 7.50008M14.3766 4.58341C14.1004 4.58341 13.8354 4.69316 13.6401 4.88851C13.4447 5.08386 13.335 5.34881 13.335 5.62508C13.335 5.90135 13.4447 6.1663 13.6401 6.36165C13.8354 6.557 14.1004 6.66675 14.3766 6.66675C14.6529 6.66675 14.9179 6.557 15.1132 6.36165C15.3086 6.1663 15.4183 5.90135 15.4183 5.62508C15.4183 5.34881 15.3086 5.08386 15.1132 4.88851C14.9179 4.69316 14.6529 4.58341 14.3766 4.58341Z" fill="white"/>
</svg>
