<svg width="20" height="20" viewBox="0 0 20 20" fill="none" xmlns="http://www.w3.org/2000/svg">
<path d="M6.6873 7.41662C7.28584 8.66324 8.10176 9.83162 9.13507 10.8649C10.1684 11.8982 11.3368 12.7142 12.5834 13.3127C12.6906 13.3642 12.7442 13.3899 12.8121 13.4097C13.0532 13.48 13.3492 13.4295 13.5534 13.2833C13.6108 13.2422 13.66 13.193 13.7583 13.0947C14.059 12.794 14.2093 12.6437 14.3604 12.5454C14.9305 12.1748 15.6654 12.1748 16.2355 12.5454C16.3866 12.6437 16.537 12.794 16.8376 13.0947L17.0052 13.2623C17.4622 13.7193 17.6907 13.9478 17.8148 14.1932C18.0617 14.6813 18.0617 15.2577 17.8148 15.7458C17.6907 15.9912 17.4622 16.2197 17.0052 16.6767L16.8696 16.8123C16.4142 17.2678 16.1864 17.4955 15.8768 17.6694C15.5333 17.8624 14.9997 18.0012 14.6056 18C14.2505 17.9989 14.0078 17.93 13.5224 17.7923C10.9138 17.0519 8.45226 15.6549 6.39869 13.6013C4.34511 11.5477 2.94812 9.08622 2.20772 6.47761C2.06995 5.99221 2.00106 5.7495 2.00001 5.39439C1.99883 5.00033 2.1376 4.46673 2.33059 4.12317C2.50452 3.81356 2.73225 3.58583 3.1877 3.13037L3.32326 2.99481C3.78028 2.53779 4.00879 2.30928 4.25421 2.18515C4.74229 1.93828 5.3187 1.93828 5.80678 2.18515C6.05219 2.30928 6.2807 2.53779 6.73772 2.99481L6.90531 3.16239C7.20595 3.46304 7.35628 3.61337 7.45456 3.76453C7.8252 4.33459 7.8252 5.0695 7.45456 5.63956C7.35628 5.79072 7.20595 5.94105 6.90531 6.24169C6.807 6.34 6.75785 6.38915 6.71671 6.44661C6.5705 6.65079 6.52002 6.94684 6.5903 7.18793C6.61008 7.25577 6.63582 7.30939 6.6873 7.41662Z" fill="#F59C00"/>
</svg>
