<svg width="142" height="48" viewBox="0 0 142 48" fill="none" xmlns="http://www.w3.org/2000/svg">
<path d="M0 24C0 10.7452 10.7452 0 24 0C37.2548 0 48 10.7452 48 24V48H24C10.7452 48 0 37.2548 0 24Z" fill="#EC7D3F"/>
<path fill-rule="evenodd" clip-rule="evenodd" d="M21.6466 29.7858C26.0272 29.7858 29.5784 26.1881 29.5784 21.7501C29.5784 17.3121 26.0272 13.7144 21.6466 13.7144C17.266 13.7144 13.7148 17.3121 13.7148 21.7501C13.7148 26.1881 17.266 29.7858 21.6466 29.7858ZM21.6466 24.9644C23.3989 24.9644 24.8193 23.5253 24.8193 21.7501C24.8193 19.9749 23.3989 18.5358 21.6466 18.5358C19.8944 18.5358 18.4739 19.9749 18.4739 21.7501C18.4739 23.5253 19.8944 24.9644 21.6466 24.9644Z" fill="#F4F4F1"/>
<path d="M40.2863 35.009L27.992 23.3572L23.233 28.1786L26.0091 30.9911H29.1818V33.0001H31.9579V35.8126H35.5272V38.2233L40.2863 39.4286V35.009Z" fill="#F4F4F1"/>
<path d="M131.441 32.2002H136.298C136.802 32.2002 137.312 32.229 137.83 32.2865C138.348 32.3297 138.816 32.452 139.233 32.6535C139.665 32.8549 140.01 33.1499 140.269 33.5384C140.543 33.9126 140.687 34.4234 140.701 35.0709C140.701 35.5745 140.586 36.0422 140.356 36.4739C140.126 36.9056 139.759 37.2581 139.255 37.5315C139.946 37.7186 140.449 38.0496 140.766 38.5244C141.097 38.9849 141.262 39.5389 141.262 40.1864C141.262 40.7908 141.14 41.316 140.895 41.7621C140.651 42.1937 140.327 42.5463 139.924 42.8197C139.521 43.0787 139.053 43.273 138.521 43.4025C137.989 43.5176 137.427 43.5751 136.837 43.5751H131.441V32.2002ZM133.924 34.2507V36.8624H135.413C135.744 36.8624 136.082 36.8624 136.427 36.8624C136.787 36.848 137.104 36.7977 137.377 36.7113C137.665 36.625 137.895 36.4883 138.068 36.3012C138.255 36.1142 138.348 35.8479 138.348 35.5026C138.348 35.2004 138.276 34.9702 138.133 34.8119C138.003 34.6392 137.838 34.5097 137.636 34.4234C137.435 34.337 137.204 34.2867 136.945 34.2723C136.701 34.2579 136.471 34.2507 136.255 34.2507H133.924ZM136.427 41.503C136.715 41.503 136.996 41.4887 137.269 41.4599C137.557 41.4311 137.809 41.3663 138.025 41.2656C138.255 41.1505 138.442 41.0066 138.586 40.8339C138.73 40.6469 138.802 40.4022 138.802 40.1001C138.802 39.5533 138.629 39.1863 138.284 38.9993C137.953 38.8122 137.543 38.7187 137.053 38.7187H133.924V41.503H136.427Z" fill="#181817"/>
<path d="M123.594 32.0061C124.501 32.0061 125.299 32.15 125.99 32.4378C126.681 32.7256 127.263 33.1285 127.738 33.6465C128.227 34.1501 128.594 34.7617 128.839 35.4812C129.084 36.2007 129.206 36.9993 129.206 37.877C129.206 38.7692 129.084 39.575 128.839 40.2945C128.609 40.9996 128.256 41.6111 127.781 42.1292C127.307 42.6472 126.717 43.0429 126.011 43.3163C125.321 43.5897 124.515 43.7264 123.594 43.7264C122.688 43.7264 121.889 43.5897 121.198 43.3163C120.507 43.0285 119.925 42.6328 119.45 42.1292C118.989 41.6111 118.637 40.9924 118.392 40.2729C118.162 39.5534 118.047 38.7548 118.047 37.877C118.047 36.9993 118.162 36.2007 118.392 35.4812C118.637 34.7617 118.997 34.1501 119.471 33.6465C119.946 33.1285 120.529 32.7256 121.22 32.4378C121.91 32.15 122.702 32.0061 123.594 32.0061ZM123.594 41.5896C124.155 41.5896 124.63 41.496 125.019 41.309C125.422 41.1075 125.745 40.8413 125.99 40.5103C126.249 40.1794 126.436 39.7909 126.551 39.3448C126.681 38.8987 126.745 38.4167 126.745 37.8986C126.745 37.3806 126.681 36.8986 126.551 36.4525C126.436 35.992 126.249 35.5963 125.99 35.2653C125.745 34.9344 125.422 34.6754 125.019 34.4883C124.63 34.3012 124.155 34.2077 123.594 34.2077C123.047 34.2077 122.572 34.3012 122.169 34.4883C121.781 34.6754 121.457 34.9344 121.198 35.2653C120.954 35.5963 120.767 35.992 120.637 36.4525C120.522 36.8986 120.464 37.3806 120.464 37.8986C120.464 38.4167 120.522 38.8987 120.637 39.3448C120.767 39.7909 120.954 40.1794 121.198 40.5103C121.457 40.8413 121.781 41.1075 122.169 41.309C122.572 41.496 123.047 41.5896 123.594 41.5896Z" fill="#181817"/>
<path d="M107.574 48.0001H105.113V32.2004H107.444L107.574 33.8192C107.991 33.2292 108.531 32.7831 109.193 32.481C109.869 32.1644 110.574 32.0061 111.308 32.0061C112.085 32.0061 112.783 32.15 113.402 32.4378C114.02 32.7112 114.546 33.0997 114.977 33.6033C115.423 34.107 115.754 34.7185 115.97 35.438C116.2 36.1431 116.316 36.9489 116.316 37.8555C116.316 38.7044 116.208 39.4887 115.992 40.2082C115.776 40.9276 115.452 41.5536 115.02 42.086C114.603 42.604 114.078 43.0069 113.445 43.2947C112.826 43.5825 112.071 43.7264 111.178 43.7264C110.488 43.7264 109.826 43.6185 109.193 43.4026C108.574 43.1724 108.034 42.7983 107.574 42.2803V48.0001ZM110.79 41.5896C111.322 41.5896 111.783 41.496 112.171 41.309C112.56 41.1075 112.876 40.8413 113.121 40.5103C113.38 40.1794 113.567 39.7909 113.682 39.3448C113.812 38.8987 113.877 38.4167 113.877 37.8986C113.877 37.3806 113.812 36.8986 113.682 36.4525C113.567 35.992 113.38 35.5963 113.121 35.2653C112.876 34.9344 112.553 34.6754 112.15 34.4883C111.761 34.3012 111.294 34.2077 110.747 34.2077C110.258 34.2077 109.804 34.3084 109.387 34.5099C108.984 34.7113 108.646 34.9775 108.373 35.3085C108.099 35.6395 107.89 36.0352 107.747 36.4956C107.617 36.9417 107.552 37.4022 107.552 37.877C107.552 38.3951 107.617 38.8843 107.747 39.3448C107.876 39.7909 108.07 40.1794 108.329 40.5103C108.603 40.8269 108.941 41.0859 109.344 41.2874C109.747 41.4888 110.229 41.5896 110.79 41.5896Z" fill="#181817"/>
<path d="M103.699 32.2002V34.337H99.8572V43.5751H97.4182V34.337H93.5762V32.2002H103.699Z" fill="#181817"/>
<path d="M84.4196 38.7188C84.4484 39.1361 84.5347 39.5246 84.6786 39.8844C84.8225 40.2441 85.0168 40.5607 85.2614 40.8341C85.506 41.0931 85.8082 41.3018 86.1679 41.46C86.5421 41.6183 86.9737 41.6975 87.463 41.6975C87.981 41.6975 88.4559 41.6039 88.8876 41.4169C89.3336 41.2298 89.6574 40.906 89.8589 40.4456H92.3842C92.2403 41.0212 92.0029 41.5176 91.6719 41.9349C91.3554 42.3522 90.974 42.6975 90.528 42.9709C90.0963 43.23 89.6142 43.4242 89.0818 43.5537C88.5638 43.6688 88.0098 43.7264 87.4198 43.7264C86.5133 43.7264 85.7147 43.5897 85.024 43.3163C84.3477 43.0429 83.7793 42.6472 83.3188 42.1292C82.8583 41.6111 82.513 40.9996 82.2828 40.2945C82.0669 39.575 81.959 38.7692 81.959 37.877C81.959 37.0137 82.0813 36.2294 82.3259 35.5243C82.5705 34.8049 82.9231 34.1861 83.3836 33.6681C83.8584 33.1501 84.4268 32.7472 85.0887 32.4594C85.7506 32.1572 86.5061 32.0061 87.3551 32.0061C88.2472 32.0061 89.0171 32.1572 89.6646 32.4594C90.3121 32.7472 90.8517 33.1429 91.2834 33.6465C91.7295 34.1501 92.0605 34.7401 92.2763 35.4164C92.4921 36.0927 92.6001 36.8266 92.6001 37.618C92.6001 37.9922 92.5785 38.3591 92.5353 38.7188H84.4196ZM90.2042 36.8626C90.161 35.9704 89.8804 35.2941 89.3624 34.8337C88.8588 34.3732 88.1969 34.143 87.3767 34.143C86.9162 34.143 86.5133 34.2149 86.1679 34.3588C85.8226 34.5027 85.5276 34.697 85.283 34.9416C85.0527 35.1862 84.8657 35.474 84.7218 35.8049C84.5779 36.1359 84.4844 36.4885 84.4412 36.8626H90.2042Z" fill="#181817"/>
<path d="M64 43.5753V28.3152H67.1513L71.7056 36.1287L76.2167 28.3152H79.2817V43.5753H76.7995V31.6823L72.202 39.6038H71.0797L66.4822 31.6823V43.5753H64Z" fill="#181817"/>
<path d="M117.74 19.145V7.77002H120.179V12.4107H121.928L124.841 7.77002H127.647L124.043 13.1877L127.928 19.145H125.079L122.079 14.5475H120.179V19.145H117.74Z" fill="#181817"/>
<path d="M110.627 19.296C109.72 19.296 108.922 19.1593 108.231 18.8859C107.555 18.5981 106.986 18.2024 106.526 17.6987C106.08 17.1807 105.741 16.5692 105.511 15.8641C105.295 15.1446 105.188 14.3532 105.188 13.4898C105.188 12.6264 105.303 11.835 105.533 11.1155C105.777 10.396 106.137 9.77729 106.612 9.25926C107.087 8.74124 107.663 8.33114 108.339 8.02895C109.015 7.72677 109.799 7.57568 110.692 7.57568C111.325 7.57568 111.907 7.64763 112.44 7.79153C112.987 7.92103 113.469 8.14407 113.886 8.46064C114.303 8.76282 114.663 9.15134 114.965 9.6262C115.267 10.0867 115.476 10.6479 115.591 11.3098H113.044C112.915 10.8205 112.634 10.4464 112.202 10.1874C111.785 9.91399 111.267 9.77729 110.648 9.77729C110.102 9.77729 109.634 9.87801 109.245 10.0795C108.857 10.2809 108.54 10.5543 108.296 10.8997C108.051 11.245 107.871 11.6479 107.756 12.1084C107.655 12.5545 107.605 13.0221 107.605 13.5114C107.605 14.015 107.663 14.4899 107.778 14.9359C107.893 15.382 108.073 15.7705 108.317 16.1015C108.576 16.4181 108.9 16.6771 109.289 16.8785C109.677 17.0656 110.145 17.1591 110.692 17.1591C111.339 17.1591 111.871 17.0152 112.289 16.7274C112.72 16.4397 112.994 16.0583 113.109 15.5835H115.634C115.519 16.231 115.303 16.7922 114.987 17.2671C114.685 17.7419 114.31 18.1304 113.864 18.4326C113.418 18.7348 112.922 18.9578 112.375 19.1017C111.828 19.2312 111.246 19.296 110.627 19.296Z" fill="#181817"/>
<path d="M94.7547 19.145H92.4668V7.77002H94.9274V15.5836L100.712 7.77002H102.935V19.145H100.475V11.4825C100.46 11.5113 98.5536 14.0655 94.7547 19.145Z" fill="#181817"/>
<path d="M84.6194 7.57568C85.526 7.57568 86.3246 7.71958 87.0153 8.00737C87.706 8.29516 88.2888 8.69807 88.7636 9.21609C89.2529 9.71973 89.6198 10.3313 89.8644 11.0508C90.1091 11.7702 90.2314 12.5689 90.2314 13.4466C90.2314 14.3388 90.1091 15.1446 89.8644 15.8641C89.6342 16.5692 89.2817 17.1807 88.8068 17.6987C88.3319 18.2168 87.742 18.6125 87.0369 18.8859C86.3462 19.1593 85.5404 19.296 84.6194 19.296C83.7129 19.296 82.9143 19.1593 82.2236 18.8859C81.5329 18.5981 80.9501 18.2024 80.4752 17.6987C80.0148 17.1807 79.6622 16.562 79.4176 15.8425C79.1874 15.123 79.0723 14.3244 79.0723 13.4466C79.0723 12.5689 79.1874 11.7702 79.4176 11.0508C79.6622 10.3313 80.022 9.71973 80.4968 9.21609C80.9717 8.69807 81.5545 8.29516 82.2452 8.00737C82.9359 7.71958 83.7273 7.57568 84.6194 7.57568ZM84.6194 17.1591C85.1806 17.1591 85.6555 17.0656 86.044 16.8785C86.4469 16.6771 86.7707 16.4109 87.0153 16.0799C87.2743 15.749 87.4614 15.3604 87.5765 14.9144C87.706 14.4683 87.7708 13.9862 87.7708 13.4682C87.7708 12.9502 87.706 12.4681 87.5765 12.0221C87.4614 11.5616 87.2743 11.1659 87.0153 10.8349C86.7707 10.504 86.4469 10.2449 86.044 10.0579C85.6555 9.87082 85.1806 9.77729 84.6194 9.77729C84.0726 9.77729 83.5978 9.87082 83.1949 10.0579C82.8064 10.2449 82.4826 10.504 82.2236 10.8349C81.979 11.1659 81.7919 11.5616 81.6624 12.0221C81.5473 12.4681 81.4897 12.9502 81.4897 13.4682C81.4897 13.9862 81.5473 14.4683 81.6624 14.9144C81.7919 15.3604 81.979 15.749 82.2236 16.0799C82.4826 16.4109 82.8064 16.6771 83.1949 16.8785C83.5978 17.0656 84.0726 17.1591 84.6194 17.1591Z" fill="#181817"/>
<path d="M76.3894 19.1449H73.8856V6.12954H66.5038V19.1449H64V3.88477H76.3894V19.1449Z" fill="#181817"/>
</svg>
