<svg width="20" height="20" viewBox="0 0 20 20" fill="none" xmlns="http://www.w3.org/2000/svg">
<path d="M5.8 5.25595C5.8 6.0046 6.4268 6.6115 7.2 6.6115C7.9732 6.6115 8.6 6.0046 8.6 5.25595C8.6 4.50729 7.9732 3.90039 7.2 3.90039C6.4268 3.90039 5.8 4.50729 5.8 5.25595ZM5.8 5.25595H3M5.8 14.7448C5.8 15.4935 6.4268 16.1004 7.2 16.1004C7.9732 16.1004 8.6 15.4935 8.6 14.7448C8.6 13.9962 7.9732 13.3893 7.2 13.3893C6.4268 13.3893 5.8 13.9962 5.8 14.7448ZM5.8 14.7448H3M7.96364 10.0004H3M17 10.0004H12.8M12.8 10.0004C12.8 10.749 12.1732 11.3559 11.4 11.3559C10.6268 11.3559 10 10.749 10 10.0004C10 9.25174 10.6268 8.64484 11.4 8.64484C12.1732 8.64484 12.8 9.25174 12.8 10.0004ZM17 5.25595H10.6364M17 14.7448H10.6364" stroke="white" stroke-width="1.6" stroke-linecap="round"/>
</svg>
