<svg width="20" height="20" viewBox="0 0 20 20" fill="none" xmlns="http://www.w3.org/2000/svg">
<path d="M17.7655 16.6339L13.4487 12.3173C14.3242 11.1991 14.7999 9.81987 14.7999 8.39977C14.7999 4.8711 11.9287 2 8.39993 2C4.87117 2 2 4.8711 2 8.39977C2 11.9285 4.87117 14.7995 8.39993 14.7995C9.81993 14.7995 11.1991 14.3241 12.3175 13.4492L16.6342 17.7659C16.7844 17.9159 16.9879 18.0001 17.2001 18C17.4123 17.9999 17.6159 17.9155 17.7659 17.7655C17.9159 17.6153 18.0001 17.4118 18 17.1996C17.9999 16.9874 17.9155 16.7839 17.7655 16.6339ZM3.59999 8.39977C3.59999 5.75267 5.75276 3.59995 8.39993 3.59995C11.0471 3.59995 13.1999 5.75267 13.1999 8.39977C13.1999 11.0469 11.0471 13.1996 8.39993 13.1996C5.75276 13.1996 3.59999 11.0469 3.59999 8.39977Z" fill="#877E7E"/>
</svg>
